<svg width="23" height="16" viewBox="0 0 23 16" fill="none" xmlns="http://www.w3.org/2000/svg">
<path d="M11.0415 2.24256C14.8306 2.15882 18.2568 4.21363 19.9809 7.54635C18.4057 10.952 15.0736 13.1561 11.2845 13.2399C7.49546 13.3236 4.06923 11.2688 2.34517 7.93609C3.92031 4.53046 7.25243 2.3263 11.0415 2.24256ZM10.9973 0.243049C5.99854 0.35352 1.79829 3.5571 0.165705 7.98425C1.99228 12.335 6.32995 15.3499 11.3287 15.2394C16.3275 15.1289 20.5278 11.9253 22.1603 7.49818C20.3338 3.14748 15.9961 0.132579 10.9973 0.243049ZM11.1078 5.24183C12.4874 5.21134 13.6319 6.30632 13.6624 7.68598C13.6929 9.06565 12.5979 10.2101 11.2183 10.2406C9.83859 10.2711 8.69412 9.17612 8.66363 7.79645C8.63314 6.41679 9.72812 5.27232 11.1078 5.24183ZM11.0636 3.24232C8.5842 3.29711 6.60933 5.36125 6.66412 7.84064C6.71891 10.32 8.78305 12.2949 11.2624 12.2401C13.7418 12.1853 15.7167 10.1212 15.6619 7.6418C15.6071 5.1624 13.543 3.18752 11.0636 3.24232Z" fill="black"/>
</svg>
